<?xml version="1.0" encoding="UTF-8"?>
<svg width="458.48mm" height="181.95mm" version="1.1" viewBox="0 0 458.48 181.95" xmlns="http://www.w3.org/2000/svg">
 <g transform="translate(-804.64 615.63)">
  <g fill="#ffa012" stroke-width=".26458">
   <path d="m830.54-615.63c-14.352 0-25.906 11.554-25.906 25.906v130.14c0 14.352 11.554 25.906 25.906 25.906h28.798c4.072 0 7.3499-3.2779 7.3499-7.3499s-3.2779-7.3504-7.3499-7.3504h-18.284c-12.033 0-21.72-9.6871-21.72-21.72v-109.11c0-12.033 9.6871-21.72 21.72-21.72h18.284c4.072 0 7.3499-3.2784 7.3499-7.3504s-3.2779-7.3499-7.3499-7.3499h-13.666z"/>
   <path d="m960.68-433.67c14.352 0 25.906-11.554 25.906-25.906v-130.14c0-14.352-11.554-25.906-25.906-25.906h-28.798c-4.072 0-7.3499 3.2779-7.3499 7.3499s3.2779 7.3505 7.3499 7.3505h18.284c12.033 0 21.72 9.6871 21.72 21.72v109.11c0 12.033-9.6871 21.72-21.72 21.72h-18.284c-4.072 0-7.3499 3.2784-7.3499 7.3504s3.2779 7.3499 7.3499 7.3499h13.666z"/>
  </g>
  <path d="m880.91-567.19c-4.072 0-7.3499 3.2779-7.3499 7.3499v15.365h0.0103c-5e-5 3e-3 5e-5 6e-3 0 9e-3 -3e-3 5e-5 -7e-3 -6e-5 -0.0103 0v-9e-3h-15.365c-4.072 0-7.3499 3.2784-7.3499 7.3504s3.2779 7.3499 7.3499 7.3499h15.365v14.7h-15.365c-4.072 0-7.3499 3.2784-7.3499 7.3505s3.2779 7.3499 7.3499 7.3499h15.365v15.365c0 4.072 3.2784 7.3499 7.3504 7.3499s7.3499-3.2779 7.3499-7.3499v-15.365h14.7v15.365c0 4.072 3.2784 7.3499 7.3504 7.3499s7.3499-3.2779 7.3499-7.3499v-15.365h15.365c4.072 0 7.3499-3.2784 7.3499-7.3505s-3.2779-7.3499-7.3499-7.3499h-15.365v-14.7h15.365c4.072 0 7.3499-3.2784 7.3499-7.3505s-3.2779-7.3499-7.3499-7.3499h-15.365v-15.365c0-4.072-3.2784-7.3499-7.3504-7.3499-4.072 0-7.3499 3.2779-7.3499 7.3499v15.365h-14.7v-15.365c0-4.072-3.2784-7.3499-7.3505-7.3499zm7.3505 37.416h14.7v14.7h-14.7v-8.6057z" fill="#ffa012" stroke-width=".26458"/>
  <g fill="#3b3b3b" stroke-width=".4749" style="font-variant-caps:normal;font-variant-east-asian:normal;font-variant-ligatures:normal;font-variant-numeric:normal" aria-label="wvffle">
   <path d="m1063.5-491.64 13.951-49.237h-13.221l-7.4768 34.466-7.3856-34.466h-12.765l-7.4768 34.466-7.8415-34.466h-13.221l13.859 49.237h13.13l7.8415-34.74 7.3856 34.74z" style="font-variant-caps:normal;font-variant-east-asian:normal;font-variant-ligatures:normal;font-variant-numeric:normal"/>
   <path d="m1110.5-491.64 16.96-49.237h-13.495l-9.9387 36.016-10.668-36.016h-13.495l17.233 49.237z" style="font-variant-caps:normal;font-variant-east-asian:normal;font-variant-ligatures:normal;font-variant-numeric:normal"/>
   <path d="m1157.8-539.88h-7.5679v-4.8326c0-2.553 1.0941-3.8296 3.4648-3.8296 1.1854 0 2.3707 0.0912 3.6472 0.27354v-9.5739c-2.7354-0.18236-5.3796-0.27354-7.2944-0.27354-8.4798 0-12.583 4.0119-12.583 12.309v5.9267h-6.9297v8.4798h6.9297v39.755h12.765v-39.755h7.5679zm30.363 0h-7.568v-4.8326c0-2.553 1.0942-3.8296 3.4649-3.8296 1.1853 0 2.3707 0.0912 3.6472 0.27354v-9.5739c-2.7354-0.18236-5.3796-0.27354-7.2944-0.27354-8.4798 0-12.583 4.0119-12.583 12.309v5.9267h-6.9297v8.4798h6.9297v39.755h12.765v-39.755h7.568zm20.698-18.236h-12.765v66.471h12.765z" style="font-variant-caps:normal;font-variant-east-asian:normal;font-variant-ligatures:normal;font-variant-numeric:normal"/>
   <path d="m1263-512.25c0.091-1.0942 0.091-1.5501 0.091-2.1883 0-4.9237-0.7294-9.4828-1.9148-12.948-3.2825-8.9357-11.215-14.315-21.154-14.315-14.133 0-22.795 10.212-22.795 26.716 0 15.774 8.5709 25.439 22.522 25.439 11.033 0 19.968-6.2003 22.795-15.957h-12.583c-1.55 3.9208-5.1061 6.2003-9.7563 6.2003-3.6472 0-6.565-1.5501-8.3886-4.2855-1.1853-1.8236-1.6412-4.0119-1.8236-8.6621zm-32.825-8.4798c0.8206-7.568 4.0119-11.215 9.6651-11.215 5.8356 0 9.3004 3.9208 9.9387 11.215z" style="font-variant-caps:normal;font-variant-east-asian:normal;font-variant-ligatures:normal;font-variant-numeric:normal"/>
  </g>
 </g>
</svg>
