<svg width="1286.1mm" height="206.64mm" version="1.1" viewBox="0 0 1286.1 206.64" xmlns="http://www.w3.org/2000/svg" xmlns:osb="http://www.openswatchbook.org/uri/2009/osb"><g transform="translate(841.66 2335.5)"><g><g transform="translate(-341.73 -1021.2)"><path d="m-59.162-1293.3-66.831 66.83 30.607 30.607 36.223-36.222z" fill="#f95"/><path d="m-192.82-1293.3v61.215l66.831 66.83 30.607-30.608z" fill="#ff7f2a"/><path d="m-265.8-1293.3v61.215l97.438 97.438 5.8803 5.8797 30.607-30.607-5.8803-5.8798z" fill="#f60"/><path d="m-59.162-1293.3-66.831 66.83 30.607 30.607 36.223-36.222z" fill="#f95"/><path d="m-192.82-1293.3v61.215l66.831 66.83 30.607-30.608z" fill="#ff7f2a"/><path d="m-265.8-1293.3v61.215l97.438 97.438 5.8803 5.8797 30.607-30.607-5.8803-5.8798z" fill="#f60"/></g><g transform="translate(-575.86 -1021.2)"><path d="m-59.162-1293.3-66.831 66.83 30.607 30.607 36.223-36.222z" fill="#f95"/><path d="m-192.82-1293.3v61.215l66.831 66.83 30.607-30.608z" fill="#ff7f2a"/><path d="m-265.8-1293.3v61.215l97.438 97.438 5.8803 5.8797 30.607-30.607-5.8803-5.8798z" fill="#f60"/><path d="m-59.162-1293.3-66.831 66.83 30.607 30.607 36.223-36.222z" fill="#f95"/><path d="m-192.82-1293.3v61.215l66.831 66.83 30.607-30.608z" fill="#ff7f2a"/><path d="m-265.8-1293.3v61.215l97.438 97.438 5.8803 5.8797 30.607-30.607-5.8803-5.8798z" fill="#f60"/></g><g transform="rotate(135 -19.565 -1771.4)"><path d="m-59.162-1293.3-66.831 66.83 30.607 30.607 36.223-36.222z" fill="#f95"/><path d="m-192.82-1293.3v61.215l66.831 66.83 30.607-30.608z" fill="#ff7f2a"/><path d="m-265.8-1293.3v61.215l97.438 97.438 5.8803 5.8797 30.607-30.607-5.8803-5.8798z" fill="#f60"/><path d="m-59.162-1293.3-66.831 66.83 30.607 30.607 36.223-36.222z" fill="#f95"/><path d="m-192.82-1293.3v61.215l66.831 66.83 30.607-30.608z" fill="#ff7f2a"/><path d="m-265.8-1293.3v61.215l97.438 97.438 5.8803 5.8797 30.607-30.607-5.8803-5.8798z" fill="#f60"/></g><g transform="rotate(45 1167.6 -1361.8)"><path d="m-59.162-1293.3-66.831 66.83 30.607 30.607 36.223-36.222z" fill="#f95"/><path d="m-192.82-1293.3v61.215l66.831 66.83 30.607-30.608z" fill="#ff7f2a"/><path d="m-265.8-1293.3v61.215l97.438 97.438 5.8803 5.8797 30.607-30.607-5.8803-5.8798z" fill="#f60"/><path d="m-59.162-1293.3-66.831 66.83 30.607 30.607 36.223-36.222z" fill="#f95"/><path d="m-192.82-1293.3v61.215l66.831 66.83 30.607-30.608z" fill="#ff7f2a"/><path d="m-265.8-1293.3v61.215l97.438 97.438 5.8803 5.8797 30.607-30.607-5.8803-5.8798z" fill="#f60"/></g><g transform="rotate(90 610.45 -1459.3)"><path d="m-59.162-1293.3-66.831 66.83 30.607 30.607 36.223-36.222z" fill="#f95"/><path d="m-192.82-1293.3v61.215l66.831 66.83 30.607-30.608z" fill="#ff7f2a"/><path d="m-265.8-1293.3v61.215l97.438 97.438 5.8803 5.8797 30.607-30.607-5.8803-5.8798z" fill="#f60"/><path d="m-59.162-1293.3-66.831 66.83 30.607 30.607 36.223-36.222z" fill="#f95"/><path d="m-192.82-1293.3v61.215l66.831 66.83 30.607-30.608z" fill="#ff7f2a"/><path d="m-265.8-1293.3v61.215l97.438 97.438 5.8803 5.8797 30.607-30.607-5.8803-5.8798z" fill="#f60"/></g><g transform="rotate(135 89.244 -1726.4)"><path d="m-59.162-1293.3-66.831 66.83 30.607 30.607 36.223-36.222z" fill="#f95"/><path d="m-192.82-1293.3v61.215l66.831 66.83 30.607-30.608z" fill="#ff7f2a"/><path d="m-265.8-1293.3v61.215l97.438 97.438 5.8803 5.8797 30.607-30.607-5.8803-5.8798z" fill="#f60"/><path d="m-59.162-1293.3-66.831 66.83 30.607 30.607 36.223-36.222z" fill="#f95"/><path d="m-192.82-1293.3v61.215l66.831 66.83 30.607-30.608z" fill="#ff7f2a"/><path d="m-265.8-1293.3v61.215l97.438 97.438 5.8803 5.8797 30.607-30.607-5.8803-5.8798z" fill="#f60"/></g></g></g></svg>
